<svg aria-hidden="true" style="position:absolute;width:0;height:0;overflow:hidden" xmlns="http://www.w3.org/2000/svg"><defs><symbol id="astronaut" viewBox="0 0 32 32"><path fill="#2196f3" style="fill:var(--color1, #2196f3)" d="M31.97 4.53a.54.54 0 0 0-.43-.37l-1.9-.27-.86-1.74c-.18-.36-.78-.36-.96 0l-.85 1.74-1.9.27a.54.54 0 0 0-.3.92l1.38 1.34-.33 1.9v.09a.53.53 0 0 0 .78.47l1.7-.9 1.71.9a.53.53 0 0 0 .78-.57v.01l-.33-1.9 1.39-1.35c.14-.14.2-.35.13-.55zm-2.46 1.32a.53.53 0 0 0-.15.47l.19 1.12-1-.53a.52.52 0 0 0-.5 0l-1 .53.2-1.12a.53.53 0 0 0-.16-.47l-.81-.79 1.12-.16a.54.54 0 0 0 .4-.3l.5-1 .5 1c.08.16.23.27.4.3l1.12.16-.8.8zm-3.38 14.68h-1.06v1.06h1.07v-1.07zm0 2.13h-1.06v1.06h1.07v-1.06zm1.07-1.07h-1.06v1.07h1.06v-1.07zm-2.13 0H24v1.07h1.06v-1.07zm-2.67 4.8h-1.06v1.07h1.06v-1.07zm0 2.14h-1.06v1.06h1.06v-1.07zm1.07-1.07H22.4v1.06h1.06v-1.06zm-2.13 0h-1.07v1.06h1.07v-1.06zM16 24.26h-1.06v1.06H16v-1.06zm0 2.13h-1.06v1.07H16v-1.07zm1.07-1.06H16v1.06h1.06v-1.07zm-2.13 0h-1.07v1.06h1.07v-1.07zM5.87 6.13H4.8v1.06h1.07V6.12zm0 2.13H4.8v1.06h1.07V8.26zm1.06-1.07H5.86v1.07h1.07V7.19zm-2.13 0H3.74v1.07H4.8V7.19z"/><path fill="#212121" style="fill:var(--color2, #212121)" d="M24.71 14.16c-.28-.38-.7-.64-1.18-.7a1.77 1.77 0 0 0-1.34.35l-1.25.96-1.9 1.41-1.36-.54A6.93 6.93 0 0 0 14.83 2.4a6.95 6.95 0 0 0-5.84 10.7l-2.77-.03H6.2c-.06 0-.1.02-.16.03l-.03.02h-.03l-3.23 1.6-1.9.91a1.78 1.78 0 0 0 1.8 3.09h-.02l1.39-.73 2.26-1.17 1.36-.01-6.78 6.76a1.64 1.64 0 0 0 0 2.35 1.66 1.66 0 0 0 2.36 0l1.3-1.31 1.75-1.3.9.9-1.76 1.75-1.34 1.33a1.64 1.64 0 0 0 0 2.36 1.66 1.66 0 0 0 2.36 0l3.48-3.47 1.01-1 .02-.03 5.16-5.66 3.48.5h.06a.5.5 0 0 0 .2-.03l.05-.03.06-.02 3.21-2.13.03-.04.04-.02 1.27-1.2a1.78 1.78 0 0 0 .2-2.36h.01zm-22.58 3.6a.72.72 0 0 1-.78-1.2l1.32-.63.32.92.13.4-.99.52zm3.5-1.82-1.55.8-.26-.74-.18-.54 2.03-1-.04 1.48zm15.1-6.61a5.8 5.8 0 0 1-.6 2.56l-4.18-1.9a1.86 1.86 0 0 0-.78-1.39h-.01l1.46-4.86a5.87 5.87 0 0 1 4.1 5.59zm-11.8 0a5.89 5.89 0 0 1 6.68-5.82h-.03l-1.44 4.75h-.05c-1.03 0-1.87.83-1.87 1.86a1.87 1.87 0 0 0 3.48.93l3.87 1.75A5.9 5.9 0 0 1 8.93 9.33zm5.96.8a.8.8 0 1 1-1.61 0 .8.8 0 0 1 1.61 0zM2.47 25.15a.61.61 0 0 1-.86 0 .6.6 0 0 1 0-.85l.96-.96.86.85-.97.95zm3.21 3.73a.6.6 0 0 1-.85-.84l.96-.96.85.84-.96.96zm3.49-3.47L7.4 27.17l-.85-.85 1.76-1.75.1-.14.02-.04a.37.37 0 0 0 .02-.12l.02-.08-.02-.1-.02-.1a.7.7 0 0 0-.09-.14l-.03-.04-1.6-1.6-.06-.03c-.03-.03-.06-.05-.1-.06a.5.5 0 0 0-.08-.03.54.54 0 0 0-.1-.03l-.1.01-.1.02a.31.31 0 0 0-.1.05l-.06.02-1.77 1.33-.9-.9 2.4-2.39 4.36 4.3-.93.9zm6.81-7.02h-.07a.52.52 0 0 0-.35.14l-.05.03-4.7 5.15-4.32-4.25 2.83-2.83c.1-.1.16-.23.16-.37 0-.3-.24-.54-.53-.54l-2.23.01.03-1.6 3.1.02a6.93 6.93 0 0 0 6.31 1.97l-.04.01c.03.03.08.07.13.09l2.4.96.16.76.18.88-3-.42zm4.04.18-.3-1.55 1.44-1.08.38.5.56.75-2.08 1.38zm3.76-2.83-.84.79-.93-1.24.83-.64a.73.73 0 0 1 .55-.14.72.72 0 0 1 .4 1.23z"/><path fill="#212121" style="fill:var(--color2, #212121)" d="m13.6 18.55-2.14-2.14a.53.53 0 0 0-.75 0l-2.15 2.14a.53.53 0 0 0 0 .75l2.15 2.13a.53.53 0 0 0 .75 0l2.14-2.13a.53.53 0 0 0 0-.75zm-2.51 1.75-1.4-1.37 1.39-1.39 1.39 1.39-1.4 1.38zm6.08-15.23-.27 1.04c.08.01 1.74.45 1.74 2.15h1.07c0-2.02-1.67-2.97-2.54-3.19zm2.54 4.26h-1.07v1.06h1.07V9.32z"/></symbol><symbol id="clock" viewBox="0 0 32 32"><path fill="#212121" style="fill:var(--color2, #212121)" d="M31.31 15.31v-.01a15.31 15.31 0 1 0-19.9 14.61l.11.03c.14 0 .23-.04.37-.14.13-.04.23-.18.27-.36L16 17.24a1.92 1.92 0 1 0-.83-3.66l-5.11-5.12a.64.64 0 1 0-.92.91l5.12 5.12a1.87 1.87 0 0 0 .54 2.28h.01l-3.65 11.7a14.03 14.03 0 1 1 10.6-.4l-.09.04-.37-1.87a.64.64 0 0 0-1.05-.37l-3.84 3.43a.64.64 0 0 0 .23 1.1l4.9 1.6a.64.64 0 0 0 .82-.74l-.37-1.82a15.3 15.3 0 0 0 9.33-14.07v-.01zM16 14.63a.64.64 0 0 1 0 1.28.64.64 0 0 1 0-1.28zm2.1 14.86 2.2-1.97.6 2.83-2.8-.91z"/><path fill="#2196f3" style="fill:var(--color1, #2196f3)" d="M15.36 3.2v1.28a.64.64 0 0 0 1.28 0V3.2a.64.64 0 0 0-1.28 0zM3.89 14.63a.66.66 0 0 0 0 1.32h1.28a.64.64 0 0 0 0-1.28H3.89zm24.22 1.32a.64.64 0 0 0 0-1.28h-1.28a.64.64 0 0 0 0 1.28h1.28z"/></symbol><symbol id="diagram" viewBox="0 0 32 32"><path fill="#2196f3" style="fill:var(--color1, #2196f3)" d="M14.93 14.97h1.06v4.8h-1.06v-4.8zm4.26 2.13h1.07v2.66h-1.07V17.1zm-8.53 1.6h1.07v1.06h-1.07V18.7zm-3.2-.54h1.07v1.6H7.46v-1.6z"/><path fill="#212121" style="fill:var(--color2, #212121)" d="M1.6 28.3h25.59c.88 0 1.6-.72 1.6-1.6v-2.14c0-.89-.72-1.6-1.6-1.6h-.54V9.67l3.03-2.87a1.6 1.6 0 1 0-.75-.75v-.01L26.65 8.2V6.97c0-.88-.71-1.6-1.6-1.6H3.73c-.88 0-1.6.72-1.6 1.6v16H1.6c-.88 0-1.6.71-1.6 1.6v2.12c0 .89.72 1.6 1.6 1.6zM30.39 4.83h.04a.53.53 0 1 1-.05 1.06.54.54 0 0 1 0-1.06zM3.2 6.97c0-.3.24-.53.53-.53h21.32c.3 0 .54.23.54.53V9.2l-1.07 1.01V8.04c0-.3-.24-.54-.53-.54H4.8c-.3 0-.53.24-.53.54v13.32c0 .3.24.53.53.53H24c.29 0 .53-.23.53-.53V11.7l1.06-1.01v12.28H3.2v-16zM8 13.9h-.01a1.6 1.6 0 1 0 1.11 2.74l1.86.94c.21.1.47.05.63-.13l3.94-4.43 3.87 2.9c.21.16.5.14.69-.03l3.37-3.2v8.14H5.33V8.56h18.13v2.66l-3.78 3.57-3.9-2.92a.54.54 0 0 0-.72.07l-4 4.5-1.49-.75.03-.2c0-.88-.72-1.6-1.6-1.6zm.53 1.6a.53.53 0 1 1-1.07 0 .53.53 0 1 1 1.07 0zm3.2 8.53h5.32v.53c0 .3-.24.53-.53.53h-4.26a.54.54 0 0 1-.54-.53v-.53zm-10.67.53c0-.3.24-.53.54-.53h9.06v.53c0 .88.71 1.6 1.6 1.6h4.26c.89 0 1.6-.72 1.6-1.6v-.53h9.06c.3 0 .53.24.53.53v2.13c0 .3-.23.53-.53.53H1.6a.53.53 0 0 1-.53-.53v-2.13z"/></symbol><symbol id="facebook" viewBox="0 0 32 32"><path d="M21.28 5.28h3.04V.16L20 0c-4.16 0-7.04 2.72-7.04 7.52V12H8v5.76h4.8V32h5.6V17.6h4.48l.8-5.6H18.4V8.16c0-1.6.48-2.88 2.72-2.88z"/></symbol><symbol id="instagram" viewBox="0 0 32 32"><path d="M31.97 9.4c-.03-1.4-.3-2.73-.76-3.96l.02.08a7.86 7.86 0 0 0-1.85-2.83A7.95 7.95 0 0 0 26.54.85 11.48 11.48 0 0 0 22.67.1h-.01a104.86 104.86 0 0 0-6.69-.1h.1c-4.36 0-4.9.02-6.6.1C7.76.16 6.6.45 5.58.83A8 8 0 0 0 2.75 2.7 8 8 0 0 0 .9 5.52 11.47 11.47 0 0 0 .16 9.4a104.86 104.86 0 0 0-.1 6.69V16c0 4.35 0 4.9.08 6.6.03 1.4.3 2.73.78 3.96l-.02-.08a7.78 7.78 0 0 0 1.85 2.83 8 8 0 0 0 2.83 1.86c1.01.38 2.18.65 3.88.73 1.7.08 2.24.1 6.59.1s4.9-.02 6.6-.1c1.4-.02 2.73-.29 3.96-.76l-.08.03a8.24 8.24 0 0 0 4.67-4.64l.02-.05c.38-1.02.67-2.18.73-3.89.08-1.7.1-2.24.1-6.59 0-4.34 0-4.88-.08-6.6zm-2.88 13.08a8.54 8.54 0 0 1-.55 2.96 5.34 5.34 0 0 1-3 3.03l-.04.01c-.56.22-1.42.48-2.97.54-1.68.08-2.2.1-6.47.1a106.97 106.97 0 0 1-6.7-.1h.24a8.45 8.45 0 0 1-2.96-.54 4.96 4.96 0 0 1-1.84-1.2c-.52-.5-.93-1.1-1.19-1.79l-.01-.03a8.64 8.64 0 0 1-.54-2.98 108.65 108.65 0 0 1-.1-6.55v.09c0-4.28.02-4.79.1-6.47.06-1.57.32-2.4.54-2.97.26-.7.66-1.32 1.2-1.83.5-.52 1.12-.93 1.8-1.19h.04c.56-.23 1.4-.49 2.98-.55 1.68-.08 2.19-.1 6.44-.1 4.3 0 4.8 0 6.47.1 1.57.06 2.4.32 2.97.54.7.26 1.33.66 1.84 1.2.53.51.95 1.14 1.2 1.83.21.57.48 1.42.55 2.97.08 1.68.1 2.2.1 6.47s-.02 4.76-.1 6.46z"/><path d="M16.06 7.78a8.22 8.22 0 1 0 0 16.44 8.22 8.22 0 1 0 0-16.44zm0 13.55a5.33 5.33 0 1 1 0-10.66 5.33 5.33 0 1 1 0 10.66zM26.53 7.46a1.92 1.92 0 0 1-3.84 0 1.92 1.92 0 0 1 3.84 0z"/></symbol><symbol id="linkedin" viewBox="0 0 32 32"><path d="M32 32V20.32c0-5.76-1.28-10.24-8-10.24a6.92 6.92 0 0 0-6.24 3.52v-3.04H11.2V32h6.56V21.44c0-2.88.48-5.44 4-5.44 3.36 0 3.52 3.2 3.52 5.6V32H32zM.48 10.56H7.2V32H.48V10.56zM3.84 0A3.79 3.79 0 0 0 0 3.84c0 2.08 1.6 3.84 3.84 3.84a3.84 3.84 0 1 0 0-7.68z"/></symbol><symbol id="logo-1" viewBox="0 0 57 32"><path d="M20.27 3.73 24 7.25h-6.93v17.18H35.2v-6.56l3.73 3.52V3.73H20.27zm14.77 13.71L24.43 7.47h10.61v10.02zm-3.3 4.48h-11.8V10.4h.8v10.72h11v.8zm-9.02 4.8-.43.9-.42-.95h-.38l.64 1.17v.75h.32v-.75l.64-1.17h-.37zm.53 1.92.16-.48h.75l.16.48h.32L24 26.67h-.32l-.75 1.97h.32zm.54-1.5.26.75h-.53l.27-.74zm1.76.7-.11.27c0 .16.05.26.21.37.11.1.22.16.43.16.16 0 .32 0 .48-.16l.1.16h.38l-.27-.37c.11-.11.16-.32.16-.54h-.26c0 .11 0 .22-.11.32l-.37-.42.16-.11.16-.16a.43.43 0 0 0-.05-.53.48.48 0 0 0-.3-.11h-.08a.53.53 0 0 0-.32.1c-.1.11-.16.22-.16.38l.05.16.16.27c-.1.05-.19.13-.26.2zm.85.43c-.09.06-.2.1-.32.1l-.21-.05a.27.27 0 0 1-.11-.21c0-.1.05-.22.16-.27h.05l.43.43zm-.37-.8-.11-.32v-.16h.37l.06.16-.06.16-.21.16zm3.09 1.01c.16-.1.21-.27.21-.48h-.32c0 .16 0 .21-.1.27-.06.1-.16.1-.32.1h-.02a.38.38 0 0 1-.3-.16l-.11-.48v-.16c0-.2.05-.37.16-.48.05-.1.16-.1.32-.1l.27.05.1.32h.32a.68.68 0 0 0-.21-.53l-.53-.11c-.11 0-.27 0-.38.1l-.26.27c-.07.14-.11.3-.11.47v.23c0 .16 0 .32.1.42.06.16.17.27.27.32l.38.11c.26 0 .42-.05.53-.16zm1.97-.27.06-.53v-.05c0-.22 0-.38-.11-.54a.75.75 0 0 0-.64-.37c-.16 0-.32 0-.43.1a.55.55 0 0 0-.26.33c-.11.1-.11.26-.11.48v.1c0 .16 0 .32.1.48 0 .16.17.27.27.32l.43.11c.16 0 .27 0 .37-.1.16-.06.22-.22.32-.33zm-.37-1.06.1.48v.1c0 .22 0 .38-.1.48l-.32.16h-.06a.37.37 0 0 1-.31-.16l-.11-.53v-.05c0-.22 0-.38.1-.54l.38-.1c.1 0 .21 0 .32.16z"/></symbol><symbol id="logo-2" viewBox="0 0 57 32"><path d="M26.72 3.2H25.42h.02c-1.97 0-3.9.53-5.65 1.33l-.27.11v11.9l.53-.22c1.75-.6 3.75-.96 5.84-1.01h.03v1.6h-.59c-2.7.13-5.19.87-7.4 2.07l.1-.05V3.8a15.67 15.67 0 0 1 8-2.2h.26c1.01.05 1.96.19 2.88.4l-.1-.02v1.5c-.64-.17-1.28-.22-1.92-.27h-.48zm2.67 1.55h1.06c2.96-.01 5.73-.78 8.14-2.13l-.08.05V17.6a15.72 15.72 0 0 1-11.1 1.8l.11.01V4.48c.56.13 1.21.23 1.89.27h.03zm7.57.1-.53.16-1.5.48a17.84 17.84 0 0 1-5.48.53h.04-.42v12.11h.32l1.06.11c2.32 0 4.5-.56 6.43-1.53l-.08.04.21-.11V4.85zM19.04 24.1a.8.8 0 0 0-.53-.2h-.38a.8.8 0 0 0-.53.8v2.02c0 .16 0 .32.1.43 0 .1.11.21.17.27l.32.15h.58a.86.86 0 0 0 .54-.79v-.22h-.54v.32l-.21.21h-.1l-.06.01a.27.27 0 0 1-.21-.11l-.06-.32v-1.92l.06-.27c.04-.1.13-.16.24-.16h.02c.1.01.18.07.22.16.1.05.1.16.1.27v.16h.54v-.22c0-.24-.11-.47-.27-.64zm3.15 0a.96.96 0 0 0-.92-.15h.01a.3.3 0 0 0-.27.16l-.21.26-.05.38v1.97l.05.37c0 .11.1.22.21.27.06.1.16.16.27.16a.89.89 0 0 0 .65 0h-.01a.3.3 0 0 0 .27-.16.85.85 0 0 0 .26-.62v-1.99l-.05-.38c0-.1-.1-.2-.21-.26zm-.22 2.62c0 .1-.04.2-.1.27a.37.37 0 0 1-.54 0 .37.37 0 0 1-.1-.27v-1.97c0-.11.04-.2.1-.27a.37.37 0 0 1 .54 0c.06.07.1.16.1.26v1.98zm4.38.85V23.9h-.54l-.64 1.98-.69-1.98h-.53v3.68h.53v-2.24l.53 1.6h.27l.53-1.6v2.24h.54zm2.98-3.41-.32-.21h-1.17v3.62h.53v-1.44h.27c.16 0 .32 0 .48-.1l.27-.27.16-.32a2.56 2.56 0 0 0 0-.98v.02l-.22-.32zm-.26 1.07-.06.26-.16.11a.51.51 0 0 1-.27 0h-.2v-1.23h.26l.21.06.16.16v.69zm2.72-1.34h-.43l-.8 3.68h.53l.16-.8h.7l.16.8h.53l-.85-3.68zm-.48 2.4.26-1.33.27 1.33h-.53zm3.89-.16-.85-2.24h-.48v3.68h.53V25.4l.8 2.18h.53V23.9h-.53v2.24zm3.2-2.24-.43 1.44-.48-1.44h-.53l.75 2.14v1.54h.53v-1.6l.7-2.08h-.54zm-20.8 4.7h.27v.74h.16v-.74h.26v-.11h-.69v.1zm2.13-.11-.32.85h.16l.06-.21H20l.05.21h.22l-.38-.85h-.16zm0 .53.06-.37.16.32h-.27zm2.14 0h.16v.11l-.22.05h-.01a.22.22 0 0 1-.15-.05l-.1-.21c0-.22.1-.32.26-.32l.06-.01c.09 0 .16.07.16.16h.16c0-.2-.16-.31-.38-.31l-.32.1a.42.42 0 0 0-.1.38c0 .1 0 .21.1.32.08.07.18.1.29.1h.04c.15 0 .26 0 .37-.16v-.32h-.38v.16zm2.13-.53h-.21v.85h.58v-.16H24v-.69zm1.76 0h-.16v.85h.16v-.85zm1.76.53-.32-.53h-.16v.85h.16v-.53l.32.53h.16v-.85h-.16v.53zm1.6-.05h.43v-.16h-.43v-.21h.48v-.11h-.64v.85h.64v-.16h-.48v-.21zm3.95-.16h-.38v-.32h-.16v.85h.16v-.37h.32v.37h.16v-.85h-.1v.32zm1.6.16h.37v-.16h-.37v-.21h.48v-.11h-.64v.85h.64v-.16h-.48v-.21zm2.13 0c.16 0 .21-.1.21-.27v-.01c0-.06-.02-.1-.05-.15a.47.47 0 0 0-.22-.05h-.42v.85h.21v-.37h.11l.05.1.22.27h.2l-.1-.16-.21-.2zm-.16-.16h-.1v-.21h.26a.1.1 0 0 1 0 .21.5.5 0 0 1-.16 0zm1.81.16h.43v-.16h-.43v-.21h.48v-.11h-.64v.85h.64v-.16h-.48v-.21z"/></symbol><symbol id="logo-3" viewBox="0 0 57 32"><path d="m19.41 26.19.16.1-.32.22-.48.1c-.16 0-.26 0-.42-.1l-.32-.16-.22-.32a1.05 1.05 0 0 1 0-.81l.21-.31c.11-.06.22-.16.38-.16a1.35 1.35 0 0 1 .86 0l.31.16-.1.1h-.17l-.05-.05a.8.8 0 0 0-.4-.1h-.03l-.32.05-.26.16c0 .1-.11.16-.16.26v.64l.16.22.26.16h.48a.7.7 0 0 0 .38-.16h.05zm3.36-.59-.05.43-.27.32-.32.16c-.26.1-.58.1-.9 0-.13-.04-.23-.1-.33-.17l-.2-.31a1.05 1.05 0 0 1 0-.81c0-.1.1-.2.2-.31l.32-.16c.32-.11.64-.11.91 0l.32.16c.2.16.32.41.32.69v.06zm-.32 0v-.27a.64.64 0 0 0-.42-.42 1.05 1.05 0 0 0-.65 0l-.26.16-.16.26v.6c.06.2.22.35.42.42h.65l.2-.16a.3.3 0 0 0 .17-.27l.05-.27zm2.62.37v.06l.05-.06v-.1l.8-1.18h.37v1.87h-.26v-1.5l-.75 1.18-.1.05h-.11l-.91-1.22v1.54h-.27v-1.86h.32l.75 1.17.05.1zm2.77-.1v.69h-.27v-1.87h1.02c.1 0 .16.11.26.16l.11.16.05.27v.21l-.21.22-.21.1-.38.06h-.37zm0-.22h.59l.16-.1.1-.11v-.37c0-.06 0-.11-.1-.16l-.38-.11h-.37v.8zm3.95.91h-.32l-.22-.53h-1l-.22.53h-.32l.85-1.87h.32l.9 1.87zm-1.44-.7h.8l-.32-.74-.11-.21v.21l-.37.75zm2.72-1.17 1.28 1.44V24.7h.26v1.87h-.2l-1.34-1.5v1.45h-.27v-1.87h.21zm3.68 1.12v.75h-.27v-.75l-.85-1.12H36l.53.8.05.16.06-.1.05-.06.54-.74v-.06h.32l-.75 1.12zM24.9 21.5h.42a10.74 10.74 0 0 0 4.73-3.54l.02-.03a8.5 8.5 0 0 0 1.7-5.33l-2.13-1.82a9.57 9.57 0 0 1-.66 5.98l.02-.06c-.9 2-2.31 3.62-4.06 4.78l-.04.02z"/><path d="M24.16 21.33v.06c2.03-1.23 3.52-2.94 4.37-4.91s.96-4.16.38-6.19l-3.04-2.67a11.43 11.43 0 0 1-1.7 13.7l-.01.01zm10.45-6.5a9.64 9.64 0 0 1-3.6 5.31l-.02.02-1.76 1.07c1.55-.4 2.91-1.1 4.07-2.04l-.02.01a9.37 9.37 0 0 0 2.56-3.25l-1.23-1.07z"/><path d="m34.13 14.56-1.81-1.6c0 1.81-.59 3.52-1.65 5.01s-2.56 2.72-4.38 3.58l1.23-.06c1.65-.58 3.15-1.6 4.27-2.77a9.05 9.05 0 0 0 2.28-4.1l.01-.06zm-9.7-8.05-2.14-1.87c-1.9.62-3.48 1.73-4.67 3.18l-.02.02a7.78 7.78 0 0 0 .37 10.3 10.62 10.62 0 0 0 5.5 3.2 11.27 11.27 0 0 0 .88-14.8l.02.02zm14.56 7.73c0-2.3-1.07-4.53-2.94-6.13a10.88 10.88 0 0 0-10.74-2l.08-.03 12.96 11.3c.42-1 .64-2.07.64-3.14z"/></symbol><symbol id="logo-4" viewBox="0 0 57 32"><path d="M12.85 11.25c-1.28 0-2.29.91-2.29 2.08 0 1.12 1.07 2.03 2.3 2.03 1.27 0 2.34-.9 2.34-2.03 0-1.17-1.07-2.08-2.35-2.08zm17.12-.64c0-1.6-.69-3.09-1.97-4.26a7.27 7.27 0 0 0-4.75-1.71c-1.76 0-3.46.64-4.74 1.76a5.68 5.68 0 0 0-1.92 4.21v8.7s13.33-1.34 13.33-8.7zM5.87 22.13c0 1.12.53 2.14 1.38 2.94a5 5 0 0 0 3.26 1.22c1.28 0 2.45-.42 3.3-1.22a3.94 3.94 0 0 0 1.4-2.88V16.1s-9.34.9-9.34 6.02zm4.64 1.07c-.22 0-.48 0-.64-.16-.22-.1-.38-.27-.48-.48-.06-.16-.11-.43-.06-.59 0-.21.16-.42.32-.53a.84.84 0 0 1 .64-.32h.7c.21.1.42.27.53.43a1 1 0 0 1-.1 1.38l-.43.22-.48.1zm9.44-.53h-.91v.9h-.37v-2.24h1.44v.43h-1.02v.53H20v.43zm2.24-.16c0 .21 0 .42-.11.53a.91.91 0 0 1-.83.53h-.02c-.16 0-.32 0-.54-.1l-.32-.38-.1-.58v-.11c0-.21 0-.43.1-.59a.91.91 0 0 1 .83-.53h.03c.21 0 .37 0 .53.1.1.11.27.27.32.43.1.16.1.38.1.54v.16zm-.43-.11c0-.27-.05-.43-.16-.53a.43.43 0 0 0-.37-.22c-.16 0-.27.06-.38.22l-.1.53v.1c0 .22 0 .38.1.54.11.1.22.16.38.16s.32 0 .37-.16c.1-.1.1-.32.16-.53v-.11zm1.97.53s0-.1-.1-.16l-.32-.16a.61.61 0 0 1-.38-.16c-.26-.1-.42-.32-.42-.53l.1-.32c.11-.1.16-.21.32-.27l.43-.05.43.05.32.27.1.37h-.48c0-.1 0-.16-.1-.26a.42.42 0 0 0-.27-.06l-.27.06-.1.2c0 .06 0 .12.1.17l.32.16c.27.05.48.16.59.27.16.16.21.26.21.48s-.1.32-.21.48c-.16.1-.37.16-.64.16-.16 0-.32 0-.48-.11l-.32-.27-.1-.37h.47c0 .21.16.37.43.37.1 0 .21 0 .27-.1l.1-.16zm2.51-1.22h-.7v1.86h-.47v-1.86h-.7v-.43h1.87v.43zm1.6.9h-.85v.59h1.06v.37h-1.6v-2.24h1.6v.43H27v.53h.9v.38zm1.28.11h-.32v.85h-.43v-2.24h.8c.32 0 .54.11.64.22.16.1.22.26.22.53 0 .1 0 .27-.11.37 0 .1-.16.16-.27.22l.48.96h-.53l-.43-.86zm-.32-.32h.43l.26-.05.06-.27-.06-.27-.32-.05h-.37v.64zm2.88.43v.8h-.53v-2.3h.96l.42.11.32.27.11.43c0 .2-.1.37-.27.53-.16.1-.37.16-.64.16h-.37zm0-.38h.43c.1 0 .21 0 .26-.1l.11-.22c0-.1 0-.21-.1-.26a.37.37 0 0 0-.27-.11h-.43v.64zm2.93.22h-.9v.58h1.06v.38h-1.49v-2.3h1.39v.43H33.6v.53h.9v.38zm2.19-.91h-.7v1.87h-.47v-1.87h-.7v-.43h1.87v.43zm1.6.9h-.85v.6h1.06v.37h-1.54v-2.3h1.54v.43h-1.06v.53h.85v.38zm1.33.11h-.37v.86h-.53v-2.3h.9c.27 0 .48.11.6.22.15.1.2.26.2.53l-.05.37-.32.22.53.96h-.53l-.43-.86zm-.37-.37h.37l.27-.05.1-.27c0-.1 0-.21-.1-.27l-.27-.05h-.37v.64zm2.72.64-.05-.21-.38-.16c-.16 0-.26-.11-.37-.16a.55.55 0 0 1-.37-.54c0-.16 0-.26.1-.32 0-.1.17-.2.27-.26l.43-.06.48.06.27.26.1.38h-.48c0-.11 0-.16-.1-.27a.42.42 0 0 0-.27-.05l-.27.05-.1.21.16.16.32.16c.26.06.42.16.53.27.16.16.21.27.21.48s-.05.32-.21.48c-.16.1-.37.16-.59.16s-.37 0-.53-.1l-.32-.27-.1-.38h.52c0 .22.11.38.43.38.1 0 .16 0 .27-.11l.05-.16z"/></symbol><symbol id="logo-5" viewBox="0 0 57 32"><path d="M14.3 23.84c.1.16.15.37.15.53l-.05.38-.21.26a1.4 1.4 0 0 1-.91.27h-1.55v-3.3h1.5c.32 0 .64.05.85.2l.21.27.1.38c0 .16-.04.37-.2.53l-.43.21c.21 0 .37.16.53.27zm-1.82-.48h.64c.1 0 .27 0 .37-.1l.11-.17.05-.16v-.16l-.16-.16c-.1-.1-.26-.1-.42-.1h-.6v.85zm1.07 1.28.16-.16v-.37l-.11-.16c-.16-.11-.32-.11-.48-.11h-.64v.9h.64c.16 0 .32 0 .48-.1zm3.84.64L16.53 24h-.32v1.28h-.74v-3.3h1.38c.38 0 .7.1.96.26.22.21.32.43.32.7s-.05.53-.2.69c-.17.16-.44.26-.65.32l.9 1.33h-.8zm-1.18-1.76h.59c.43 0 .64-.16.64-.48l-.05-.21a.53.53 0 0 0-.11-.16l-.48-.16h-.59v1.06zm5.12 1.12H19.9l-.26.64h-.75l1.33-3.25h.8l1.33 3.25h-.74l-.27-.64zm-.21-.53-.53-1.39-.54 1.39h1.07zm5.17 1.17h-.69L24 23.04v2.24h-.75v-3.3h.7l1.6 2.23v-2.24h.74v3.31zm4.11-.75c-.1.22-.37.43-.64.54-.32.16-.64.2-1.01.2h-1.28v-3.3h1.33c.37 0 .7.06 1.07.22.21.1.48.32.58.53a1.8 1.8 0 0 1 0 1.77v-.01zm-.8-.1a1.17 1.17 0 0 0 0-1.6 1.1 1.1 0 0 0-.9-.27h-.54v2.13h.53c.32 0 .64-.1.91-.26zm-7.79-20.8s9.28 3.2 9.07 7.84v7.89s-9.28-3.2-9.07-7.9V3.64zM39.2 17.49a13.93 13.93 0 0 1 5.87-1.97v-2.45c-2.43.85-4.43 2.4-5.84 4.39l-.03.03z"/><path d="M38.13 18.24a12.32 12.32 0 0 1 6.94-5.7v-7.1s-13.23 4.59-12.96 11.2v11.2l1.54-.59V26.2c.32-3.1 1.92-5.92 4.48-7.95z"/><path d="M36.85 22.4c.11-.75.22-1.55.48-2.3a10.3 10.3 0 0 0-2.82 6.76v.02l2.56-1.23a10.8 10.8 0 0 1-.22-3.2zm.54 0a9.76 9.76 0 0 0 .17 3.05l-.01-.06c3.62-1.98 7.68-5.07 7.52-8.75v-.32a12.34 12.34 0 0 0-6.88 2.93c-.43 1.07-.7 2.14-.8 3.2z"/></symbol><symbol id="logo-6" viewBox="0 0 57 32"><path d="M28.48 14.61a1.59 1.59 0 0 1-.32-1.07V12c0-.43.1-.8.32-1.07a1.5 1.5 0 0 1 1.07-.37c.53 0 .9.1 1.07.32.26.27.37.59.32.9v.38h-.86v-.7c0-.1-.1-.15-.16-.2a.53.53 0 0 0-.64 0c-.1 0-.16.1-.16.2v2.25l.05.53.22.1.21.06c.1 0 .21 0 .32-.1l.1-.22v-.75h.92v.38c0 .32-.06.64-.27.96-.21.2-.53.32-1.07.32s-.9-.11-1.07-.38zm3.68 0c-.27-.21-.37-.53-.37-1.06v-1.6c0-.43.1-.8.37-1.07.21-.16.53-.32 1.07-.32s.9.16 1.12.37c.21.21.32.53.32 1.07v1.6c0 .43-.11.8-.32 1.07-.22.2-.59.32-1.07.32-.53 0-.9-.11-1.12-.38zm1.5-.37.1-.48v-1.97c0-.16 0-.32-.1-.48l-.17-.11a.51.51 0 0 0-.27 0 .51.51 0 0 0-.21 0l-.16.1c-.1.17-.16.33-.1.49v1.97c0 .16 0 .32.1.53l.16.1a.62.62 0 0 0 .49 0v.01l.15-.16zm2.07-3.57h.96l.7 2.93.74-2.99h.91l.05 4.32h-.64l-.1-2.98-.7 2.98h-.53l-.7-2.98-.15 2.98h-.7l.11-4.26zm4.43 0h1.5c.85 0 1.27.37 1.27 1.17s-.48 1.17-1.33 1.17h-.53v1.92h-.91v-4.26zm1.28 1.81h.27l.21-.16.16-.48-.05-.37-.06-.11-.16-.1c-.1-.06-.26-.11-.37-.06h-.37v1.28h.37zm2.83-1.81h.9l1.07 4.26h-.9l-.17-1h-.9l-.22 1h-.85l1.07-4.26zm.8 2.77-.38-1.81-.32 1.81h.7zm1.92-2.77h.64l1.22 2.4v-2.4h.75v4.26h-.59l-1.22-2.56v2.56h-.86v-4.26zm4.37 2.66-1.01-2.66h.85l.64 1.65.53-1.7h.86l-1.02 2.66v1.65h-.85v-1.6zm-21.5 3.47v.27h-.69v1.7h-.37v-1.7h-.75v-.27h1.82zm2.35 1.97h-.37l-.21-.53H30.6l-.2.53h-.33l.9-1.97h.33l.9 1.97zm-1.49-.64h.85l-.37-.8-.05-.21v.1l-.06.11-.37.8zm3.04.48h.16c.11 0 .22-.02.33-.05h-.01l.1-.05v-.48h-.42v-.16h.7v.74c-.17.11-.37.19-.59.22h-.27c-.16 0-.32 0-.48-.11a1.07 1.07 0 0 1-.38-.16l-.2-.32-.11-.43c0-.16 0-.26.1-.42 0-.11.11-.22.22-.32.1-.06.2-.16.37-.16a1.51 1.51 0 0 1 .75-.11c.14.03.26.09.37.16l.16.1-.06.11h-.2l-.17-.1a1.1 1.1 0 0 0-.37-.11c-.14.01-.27.05-.38.1l-.26.11-.16.27v.7c0 .1.1.2.21.26a.8.8 0 0 0 .55.21h.04zm2.88-.05h1.01v.21h-1.28V16.8h.27v1.76zm2.03.21h-.27V16.8h.32v1.97zm1.17-1.97v.05l1.39 1.5V16.8h.26v1.97h-.26l-1.34-1.5v1.56h-.26v-1.98h.16zm3.9 0v.21h-1.07v.7h.85v.2h-.85v.65h1.06v.21h-1.38V16.8h1.38zM11.3 4.64 25.07 8v11.73L11.3 16.37V4.64zm-.91-1.07v13.5l15.52 3.73V7.47L10.45 3.63z"/><path d="M18.72 27.04 3.2 23.25V9.81l15.52 3.84V27zM10.67 4.48l13.54 3.3-5.76 5.02L4.91 9.44l5.76-4.96zm-.27-.85L3.2 9.8l15.52 3.84 7.2-6.24-15.47-3.78zm9.17 22.66 6.4-5.49-6.4-1.55v7.04z"/></symbol><symbol id="mail" viewBox="0 0 43 32"><path d="M38.67 0H4a4 4 0 0 0-4 4v24a4 4 0 0 0 4 4h34.67a4 4 0 0 0 4-4V4a4 4 0 0 0-4-4zm0 2.67c.2 0 .38.04.54.1h-.01L21.33 18.24 3.47 2.77c.15-.06.33-.1.52-.1h34.68zm0 26.66H4c-.74 0-1.33-.6-1.33-1.33V5.6l17.78 15.41a1.33 1.33 0 0 0 1.77 0L40 5.6V28c0 .74-.6 1.33-1.33 1.33z"/></symbol><symbol id="radar" viewBox="0 0 30 32"><path fill="#212121" style="fill:var(--color2, #212121)" d="m29.85 22.08-8.46-8.5.96-4.57c.23.04.46.13.78.13h.03a2.15 2.15 0 1 0-2.04-1.45v-.01l-4.98.6L8.04.13C7.96.04 7.83 0 7.68 0S7.4.05 7.3.14l-1.5 1.5a.53.53 0 0 0 0 .78l.82.78a14.9 14.9 0 0 0 2.65 17.73l-.05.56v6.21H2.8a2.65 2.65 0 0 0-2.65 2.65v1.05c0 .32.27.55.55.55h24.54c.28 0 .5-.23.5-.55v-1.05a2.65 2.65 0 0 0-2.64-2.65h-6.4v-2.74a14.97 14.97 0 0 0 10.14-1.5l-.09.04.87.82c.1.09.23.14.37.14s.27-.05.36-.14l1.51-1.51a.53.53 0 0 0 0-.78zM22.4 6.22c.19-.17.43-.28.7-.28a1.05 1.05 0 0 1 .08 2.1h-.07a1.05 1.05 0 0 1-.71-1.82zm-1.23 3.52-.6 2.92-1.19-1.14 1.79-1.78zm-.6-.92-1.92 1.92-1.5-1.5 3.42-.42zM23.1 28.8c.91 0 1.6.73 1.6 1.6v.55H1.23v-.55c0-.91.7-1.6 1.6-1.6H23.1zm-7.46-2.15v1.1h-5.35v-1.1h5.35zM10.3 25.6v-4.07c0-1.28 1.19-2.33 2.65-2.33 1.5 0 2.7 1.05 2.7 2.33v4.07h-5.36zm6.4-1.7V21.5c0-1.83-1.7-3.39-3.75-3.39-1.33 0-2.56.64-3.25 1.79A13.8 13.8 0 0 1 7.44 3.9l-.03.08L26 22.72a13.62 13.62 0 0 1-9.42 1.13l.1.01zm11.29-.68-.73-.82L7.68 2.74l-.82-.68.77-.78 7.91 8L28.8 22.4l-.78.78z"/><path fill="#2196f3" style="fill:var(--color1, #2196f3)" d="M12.98 20.25a1.6 1.6 0 1 0 0 3.2 1.6 1.6 0 1 0 0-3.2zm.37 2.01a.55.55 0 1 1-.41-.91.55.55 0 0 1 .4.91z"/></symbol><symbol id="tel" viewBox="0 0 20 32"><path d="M17 0H3C1.4 0 0 1.4 0 3v26c0 1.6 1.4 3 3 3h14c1.6 0 3-1.4 3-3V3c0-1.6-1.4-3-3-3zM3 2h14c.6 0 1 .4 1 1v21H2V3c0-.6.4-1 1-1zm14 28H3a1 1 0 0 1-1-1v-3h16v3c0 .6-.4 1-1 1z"/></symbol><symbol id="twitter" viewBox="0 0 32 32"><path d="M32 6.08c-1.12.48-2.4.8-3.84.96a6.44 6.44 0 0 0 2.87-3.48l.01-.04c-1.28.8-2.56 1.28-4.16 1.6a6.55 6.55 0 0 0-11.36 4.47c0 .51.06 1.01.17 1.5l-.01-.05A18.49 18.49 0 0 1 2.24 4.16a6.55 6.55 0 0 0 2.06 8.79l.02.01a6.38 6.38 0 0 1-3.07-.82l.03.02a6.4 6.4 0 0 0 5.28 6.4 6.25 6.25 0 0 1-3.08.15l.04.01c.96 2.72 3.2 4.64 6.24 4.64a13.04 13.04 0 0 1-9.83 2.71l.07.01C2.88 28 6.4 28.8 10.08 28.8h.01A18.56 18.56 0 0 0 28.64 9.57v.03A13.4 13.4 0 0 0 32 6.24z"/></symbol></defs></svg>